<svg viewBox="0 0 660 394" xmlns="http://www.w3.org/2000/svg" fill-rule="evenodd" clip-rule="evenodd" stroke-linejoin="round" stroke-miterlimit="1.4">
  <path fill="none" d="M0 0h659.1v394H0z"/>
  <g>
    <path d="M650.7 196.9c0-.6-.2-1.2-.6-1.7v-.1a411.7 411.7 0 0 0-40.6-31c-2-1.3-4.3.9-3.8 3l6.1 29.8-6.1 29.7c-.5 2.1 1.8 4.3 3.8 3 14.5-9.3 27.4-20 40.6-31 .4-.5.6-1.1.6-1.7" fill="#00687a" fill-rule="nonzero"/>
    <path d="M330 172.6h.8l.7-.1a3 3 0 0 0 1.2-2c.2-.8 0-1.6-.4-2.2l-1.1-1.1c-.5-.5-1-.7-1.7-.7-.6 0-1.1.4-1.5 1.1a15.3 15.3 0 0 0-.6 2c.1 1.7 1 2.7 2.7 3m36.7-5.4c-.5-.5-1-.7-1.7-.7-.6 0-1.1.4-1.5 1.1a16 16 0 0 0-.7 2c.2 1.7 1 2.7 2.7 3h.8l.7-.1a3 3 0 0 0 1.2-2c.1-.8 0-1.6-.5-2.2a8 8 0 0 0-1-1.1" fill="#1b0a40" fill-rule="nonzero"/>
    <path d="M378 189.6a35 35 0 0 1 2.2-9.4 1118.1 1118.1 0 0 1-2.2 9.4m-1.3-4.5h-.2v-.2l1.5-4.9a63 63 0 0 0 1.5-4.2 28.6 28.6 0 0 1 1.4-2.9l.2.2-3 7-1.4 5zm6.3-12a36 36 0 0 1 4.1-5.6 30 30 0 0 0-3.7 5.4l-2.8 6c0-.5.3-1.3.7-2.4l1.7-3.4m6.4-6.6c1-1 2-1.7 3.1-2.2 1-.5 1.6-.2 1.8.9.2.9.2 1.8 0 2.6s-.6 1.6-1 2.3a24.2 24.2 0 0 1-1.8 2.2 35 35 0 0 1-9 6l-.2-.2a109 109 0 0 0 1.6-3.7 33.9 33.9 0 0 1 5.5-8m-26.2 37l-.1-.4-.1-.4a254.2 254.2 0 0 0 .3-7.8l.7-6 .8-6.2a140.4 140.4 0 0 1 .4-3h.2l-1.3 12c-.5 4-.8 7.9-.9 11.9m-.7-10.8a115.2 115.2 0 0 0-.5 9c-.2-.4-.3-1.4-.3-3a76.7 76.7 0 0 1 1.8-15.4l-.5 4.7-.5 4.7m.1 8.7v-4 4zm-18.8 14a38.9 38.9 0 0 0-.9-2.4 26.3 26.3 0 0 1-1-8 105 105 0 0 1 2.1-23.2l.3-.4v1a367 367 0 0 1-1.6 11.6 74 74 0 0 0-.1 14.9 28.2 28.2 0 0 0 1.4 6.4h-.2m-2.7-8.1l1.2 6.6c-.8-2.1-1.2-4.3-1.2-6.6m-.8 3.2l-.5-4 1.6 8c-.5-1.3-.9-2.7-1.1-4m1.3-20l-.2 3h-.2l.4-3zm1.7-9.5l-.6 2.8-.5 3a80.5 80.5 0 0 1-.6 3.6l.5-5.2.7-3.6.2-.7.3.1m1.2-11c1.7-5.2 3.8-10.2 6.2-15.1l.5-.8.8-1.6.3-.4h.2l-1.2 2.1a111 111 0 0 1-3 6.7 102.1 102.1 0 0 0-7.8 27.8l.3-2.8c.8-5.5 2-10.8 3.7-16m11-19l1.2-1.7c.5-.6 1-1.2 1.3-1.8l.3.2a50 50 0 0 0-4.5 7.5 158.2 158.2 0 0 0-6.6 16l-2.3 8.3h-.4l.2-1.1.2-1a93.1 93.1 0 0 1 10.6-26.3m6.2-5.5l1-.7 1-.7c.5-.4.8-.3 1 .3a28.3 28.3 0 0 1 .9 3.1 18.7 18.7 0 0 1-2.2 10.2 63.6 63.6 0 0 1-13.5 18l-1.3 1-1.4 1.1-.3.2-.3-.1a136 136 0 0 0 2-6.5 110.9 110.9 0 0 1 10.2-22.4c.9-1.3 1.8-2.4 3-3.5m2 15.9h-.1l.6-1.5.7-1.3h.2l-1.3 2.8zm-36.2 42.2l-.1-.5v-.4a242.1 242.1 0 0 0 .2-7.8 279.2 279.2 0 0 1 1.9-15.1h.2c-.3 4-.7 8-1.3 11.9-.5 4-.8 7.9-.9 11.9m-.7-10.8a110 110 0 0 0-.5 9c-.2-.4-.3-1.4-.3-3a77.2 77.2 0 0 1 1.9-15.4 2762.4 2762.4 0 0 1-1 9.4m0 8.7v-4 4zm-18.2 17l-.4-2.6h.2l.4 2.6h-.2zm7-53.9v1.1a70 70 0 0 1-1.1 8 1638 1638 0 0 0-4.2 21c-.2 0-.3-.1-.3-.2l5.6-29.9zM312 172l1.3-6.6.3.1a794.6 794.6 0 0 0-2.5 13.1h-.3l1.2-6.6m2.5-4.5a1559.3 1559.3 0 0 1-2.4 12.1h-.3l2.4-12.1h.3zm-21 19.9l-1 6.1c.3-4.1.7-8.3 1.3-12.3l1.8-12.3a72 72 0 0 1-1.2 12.3l-1 6.2m-2.1 3.7l2.5-19.3h.3l-2.6 19.3h-.2zm-.8-2.3h-.3l2.7-20.3c0 3.4-.4 6.8-1 10.2-.6 3.3-1 6.7-1.4 10.1m-.5 10h-.2v-3.1h.2v3zm-15-9.4V186v.1l.1 3.3zm-.2 3.2v-1.9l.1 1.9zm-1.3-5.3h-.1v-2.8h.1v2.8zm-.2 4.1v-2.7 2.7zm-1.8-4.3c-.2 4.9-.3 9.8-.2 14.7-.2-5-.3-9.8-.1-14.7a78 78 0 0 1 1.8-14.7 121 121 0 0 0-1.5 14.7m-38.6-4.8c.5-1.5 1.5-3 2.8-4.2a87.8 87.8 0 0 0-2.8 4.2m3.7-3.5l-2.3 3.3h-.2l2.2-3.5.3.2zm3.6-2.2a42 42 0 0 0-5.7 7.6c1-3 2.9-5.6 5.7-7.6m-7.4-22.9c0-.3.2-.6.4-1a11.2 11.2 0 0 1 2.5-3.4l-2.9 4.4zm5.4-5.5l-3.5 4.7c.7-1.8 2-3.4 3.5-4.7m-.2 2.4a28 28 0 0 0-3.3 5 15 15 0 0 1 3-5.3c1.3-1.5 2.8-2.8 4.6-4-1.6 1.4-3 2.8-4.3 4.3m19.4-5.3l.2.1a38.1 38.1 0 0 1-1.5 2.5v-.2l1.3-2.4zm143.4 34.6a344.9 344.9 0 0 0-4.2 5.6l-4 4.9a43.8 43.8 0 0 1-7.5 6.5c-1 .7-2.1 1.2-3.3 1.5-.6.2-1 .2-1.4.1-.2-.1-.5-.5-.7-1.1-.3-1-.5-2-.5-2.9-.1-2 0-4 .4-6l1.3-6c.2-.7.4-1.2.7-1.6.3-.4.8-.6 1.6-.6l.7-.3c3.8-1.4 7.1-3.7 9.9-6.8a9 9 0 0 0 2.4-5v-2.6c-.3-.8-.8-1.5-1.6-2-.8-.6-1.7-1-2.5-1.2-1-.1-1.8 0-2.8.5a16.2 16.2 0 0 0-4.7 3.7c-3.5 3.9-6 8.3-7.7 13.3l-.7 2.5-2.9 6.2a149.8 149.8 0 0 1-8.2 14.7l-.6.5v-1.3l.3-2.6.3-2.5a146.8 146.8 0 0 0 1-10l.7-8.4c0-.5 0-.9-.2-1l-.8-.6-.6-.5c-.2-.1-.4 0-.7.2v-.1l-.6-.7-.3.1-2.1 12.6a65.3 65.3 0 0 0-1 11.8v-.5l.1-5a91 91 0 0 1 1.4-11.7 198.8 198.8 0 0 0 1.1-7.2h-.6l-.4.7-.6 2.2-1 5.3-.6 2-3.5 8.8a635.8 635.8 0 0 0-5.7 15c-.5 1.1-1 2.3-1.7 3.3a238.5 238.5 0 0 0-2.5 4l-.5-.8a91.9 91.9 0 0 1-1.3-3 36.3 36.3 0 0 1-1.2-9.8 182.7 182.7 0 0 1 1.4-17l.8-4.7c0-.5.3-.9.9-1 1.2-.6 2.4-1.2 3.4-2l3-2.6a49.3 49.3 0 0 0 14.5-22.7c.5-2 .7-4.3.5-6.6a7.1 7.1 0 0 0-1.3-3.6 5.5 5.5 0 0 0-6.2-2c-1 .3-2 .9-2.9 1.6-1.1 1-2.1 2-3 3.1a68.6 68.6 0 0 0-7.2 12.6 117.7 117.7 0 0 0-7.4 24.7l-2.3 4.7a149 149 0 0 1-8.2 14.7l-.5.5v-1.3l.2-2.6a767.7 767.7 0 0 1 1.4-12.6l.6-8.3c0-.5 0-.9-.2-1-.1-.2-.4-.4-.8-.6l-.6-.5c-.1-.1-.4 0-.7.2v-.1l-.5-.7-.4.1-2 12.6a65.2 65.2 0 0 0-1 11.8v-.5l.2-5c0-1.7 0-3.4.3-5a92 92 0 0 1 1-6.7 204 204 0 0 0 1.2-7.2h-.7l-.4.7a15 15 0 0 0-.6 2.2l-.8 4.8-.1.2a289 289 0 0 1-5.2 12c-1 2.2-2 4.5-2.9 6.9a130.5 130.5 0 0 1-6.9 13.8h-.2v-4.8a703.3 703.3 0 0 0 1.1-11 255.7 255.7 0 0 1 4.3-23.4 258.6 258.6 0 0 0 2-12.4c0-1.2 0-2.4-.3-3.7a4.5 4.5 0 0 0-1.9-2.8 3 3 0 0 0-2.2-.5 3 3 0 0 0-1.9 1.3c-3 4.4-5.8 8.9-8.3 13.5a263.3 263.3 0 0 0-7.6 14.6 1488.1 1488.1 0 0 1 2-15.5c.2-1.8.2-3.6 0-5.5a5.3 5.3 0 0 0-1.6-3.4 4 4 0 0 0-3.4-1 2 2 0 0 0-1.2.7 43.6 43.6 0 0 0-2.2 3.3l-3 4.3c-1 1.5-1.8 3-2.6 4.5a145.3 145.3 0 0 0-6.6 14.3l-.4.9c-.1-.4-.2-.6-.1-.7a7855 7855 0 0 0 .6-17.8c-.1-.2-.3-.3-.6-.3 0 0-.2 0-.3.3l-.2.6a486.5 486.5 0 0 0-1.7 23.6 107 107 0 0 1 1.5-24.5l-.1-.4h-.3l-.1.2-.3.7-.7 4-.4 4.1a124.2 124.2 0 0 0-.6 12.9 46.8 46.8 0 0 0 0 6h-.4v-1l.2-6.7a346.4 346.4 0 0 1 .4-10.4 72.8 72.8 0 0 1 1.4-9.5c.1-.4 0-.6-.3-.6h-1.2l-.7 1-.2.7-.2.8a47 47 0 0 0-1.2 6.8l-.2 2.5a1405 1405 0 0 0-8.6 16.1 74.4 74.4 0 0 1-5 7.7 32.5 32.5 0 0 1-9.8 8.7c-1.2.6-2.4 1-3.7 1.3-.7.2-1.4.2-2.2 0-.8 0-1.5-.4-2.2-.8-.8-.4-1.4-.9-2-1.5-.6-.6-1-1.3-1.3-2a18 18 0 0 1-1.5-5 59 59 0 0 1-.5-11l.8-5.8a25 25 0 0 1 2-6.4 17 17 0 0 1 3.8-5.5l2.3-2a10 10 0 0 1 5-2.2 90.4 90.4 0 0 0 3-.5l-.2-.7c-.2-.4-.1-.6.3-.8l1.3-.6c.4-.3.5-.7.2-1-.2-.3-.5-.5-1-.6h-1.2l-1.7.6-2.4.4a114.6 114.6 0 0 0-4.8.8 5 5 0 0 1-2.7-.7 5.5 5.5 0 0 1-2-1.9 12.8 12.8 0 0 1-1.4-8.3c.6-3.8 2-7 4-9.5 2.2-2.6 4.9-4.7 8.3-6.4 1-.5 2.2-1 3.4-1.2 1.2-.2 2.4-.2 3.7 0 .4.1.5.2.5.3l-.1.7a1792.5 1792.5 0 0 1-2.5 6.8c-.4 1-.6 2.2-.8 3.4-.2 1.1-.3 2.3-.2 3.4 0 1.3.7 2.3 2 3h.6v-.6a207.3 207.3 0 0 0 0-2.8 29 29 0 0 1 4.7-12l.4-.8c0-.2-.2-.5-.6-1a3 3 0 0 0-1.2-1.3l-1.5-.8c-1.3-.8-2.6-1.3-4-1.7a7.8 7.8 0 0 0-3.7-.1c-1.2.2-2.4.6-3.6 1a22.7 22.7 0 0 0-9.3 6.8 21.7 21.7 0 0 0-4.5 8 17 17 0 0 0 0 9.2 9.5 9.5 0 0 0 3 4.9 13.3 13.3 0 0 0 5.5 3.3l-1.4 1a18.7 18.7 0 0 0-6 7.7c-.5 1.2-1 2.4-1.3 3.5l-1 3.7a34.8 34.8 0 0 0-1 10 48.6 48.6 0 0 0 1 8.1 13.3 13.3 0 0 0 4 7.7 14.3 14.3 0 0 0 7.9 3.2c2.3.3 4.4 0 6.3-.8a31.1 31.1 0 0 0 11.8-10 69 69 0 0 0 5-8l3.5-6.6 2.3-4.3a148.8 148.8 0 0 0 .5 13.5l.2.7c0 .3.2.4.3.5l1.2.2a2 2 0 0 0 1.2-.4l.3-.1c.6.1 1-.1 1.1-.7a36.5 36.5 0 0 1 .8-3.4 147.1 147.1 0 0 1 10.7-25 46 46 0 0 1 4.6-6.3l.3-.3.3-.3v.4a571.7 571.7 0 0 0-1.8 15.5 227.6 227.6 0 0 0-.8 8.7 253.1 253.1 0 0 0-.2 6.3 82.7 82.7 0 0 0 .5 2.5l.3.2a960.1 960.1 0 0 0 3.5-.5l.1-.3 3.4-8.1a173.5 173.5 0 0 1 15.7-29.2h.2l-.2 1.6-2.1 11a379.8 379.8 0 0 1-2.5 13l-1.4 9a77.7 77.7 0 0 0-.3 20l.6 2c.3.7.9 1 1.8.9a4.7 4.7 0 0 0 3.4-2.1 39.5 39.5 0 0 1 1.5-2.8 1779.6 1779.6 0 0 0 6.4-14.5l4.3-9.7a45 45 0 0 0-.2 9 313.2 313.2 0 0 0 1.1 4c.5 1 1.3 1.7 2.4 1.8.8 0 1.4 0 2-.2.7-.2 1.2-.6 1.7-1.2a50.8 50.8 0 0 0 1.5-2.3l5.5-11 1.3-2.7-.5 6.2c0 2-.2 4.2-.4 6.3l.3 5.4a35.4 35.4 0 0 0 2 9 9.6 9.6 0 0 0 2 3c.4.6 1 .9 1.6 1a5 5 0 0 0 3.2-.4c1-.5 1.8-1.2 2.4-2.3a37.3 37.3 0 0 0 2.4-5 325.7 325.7 0 0 0 4.6-12.3l2.5-7-.3 3.1a25 25 0 0 0 .7 6.7l.7 1.9c.5 1 1.3 1.7 2.4 1.8.7 0 1.4 0 2-.2.6-.2 1.2-.6 1.7-1.2a50.8 50.8 0 0 0 1.5-2.3l6.8-13.3v4.5c.2 1.8.7 3.3 1.4 4.2.8 1 2 1.6 3.4 2 1.2.5 2.3.5 3.3.2s2-.8 3-1.4a34.5 34.5 0 0 0 7.7-6.8 96.4 96.4 0 0 0 9.1-12.4c-.7-.3-1.1-.4-1.3-.3l-.7.9m80.6 34.4a13.3 13.3 0 0 0-.1-1.8l.3-.1.1 1.9h-.3zm3.6-32a815 815 0 0 1 5-24.4c-1.4 8.2-3 16.3-4.5 24.5a306 306 0 0 0-3.9 24.7 280 280 0 0 1 3.4-24.8m2.4-17.3l-4 21.7h-.2l2-10.9c.6-3.6 1.3-7.2 2.2-10.8m-4.6 16.7a125.3 125.3 0 0 1 2-10.5 628.7 628.7 0 0 1 3-13.7 3406.8 3406.8 0 0 0-5 24.2m-22.3-6h-.2l.7-5.8h.2l-.6 5.8zm-2.7 4.8a51 51 0 0 1-.3 1.8l.2-3.8h.2l-.1 2m42-2c0-.2 0-.4-.4-.7-.4-.1-.7-.2-1-.1-.5 0-.7.3-.9.5l-1 2.1-3 6.6a294.2 294.2 0 0 0-10.2 24l-.3.6a.5.5 0 0 1-.2-.4l.4-4 .7-6a137.3 137.3 0 0 1 2.6-16.7 1933.8 1933.8 0 0 0 4.2-22 70.6 70.6 0 0 0 1.7-15 15 15 0 0 0-.4-3.7 6 6 0 0 0-1-2.6 5 5 0 0 0-4.1-2c-.9 0-1.7.1-2.5.5-1.6.7-3 1.6-4.2 2.6a24 24 0 0 0-3.4 3.5 64 64 0 0 0-5.7 8.6 358.6 358.6 0 0 0-8.4 16.4h-.1v-.8a368.8 368.8 0 0 1 1-6.8 290.7 290.7 0 0 0 .5-9.7c0-1 0-2-.3-3s-.8-2-1.6-2.8c-1.7-1.8-3.4-1.9-5-.2-1.3 1-2.4 2.2-3.4 3.4a100.6 100.6 0 0 0-13 23.7l-.4 1.2c-.1-.5-.2-.8-.1-1.1l.7-5.6.9-5.7a285 285 0 0 1 2.4-12.8c.2-1 .2-1.5 0-2a5 5 0 0 0-1.5-1.2 48 48 0 0 1-1.2-.3 2 2 0 0 0-.8 1 380.8 380.8 0 0 1-3.2 10.8 90.3 90.3 0 0 0-2.7 30.7c0 .4.2.7.4.9l.8.4h1.3c.6.5 1 .3 1-.4l.5-1.9.6-1.8a121 121 0 0 1 15.5-33 25.2 25.2 0 0 1 4.2-4.7l.5-.3.2.6c.1.1.2.3.1.6l-.4 5.2a109 109 0 0 1-1.3 10.2 77.7 77.7 0 0 0-1.4 11.4 2384.2 2384.2 0 0 0-.5 9l.1.8c.1.2.4.4.8.5h1l.5-.2.2-.4.5-1.6v1l-.2.9v.3l.3.2h.4l.3-.3.2-.6a24.6 24.6 0 0 0 .5-2.6l.5-2a51 51 0 0 1 2.8-7.4l3.5-7.1a145.3 145.3 0 0 1 7.4-13.3 51.8 51.8 0 0 1 6.6-9 17.1 17.1 0 0 1 5.2-3.6c.5-.2.9-.3 1-.2.2.1.3.5.4 1l.1 1.3v1.3a509.6 509.6 0 0 0-1.9 12.2c-.5 3-1.1 6-1.8 8.9a236 236 0 0 0-3.7 20.2l-1.8 11.4a101.5 101.5 0 0 0-.9 14.3l.1 2.3c.1.8.4 1.5.7 2.2.1.4.3.7.6.8.2.2.5.3 1 .2 1.9 0 3.2-1 4-3l1.7-3.8a163 163 0 0 0 6.6-16.6 264.6 264.6 0 0 1 6.4-14.6l.3-.7m5.1 18.8a13.4 13.4 0 0 0-2.7-2.4c-1.1-.7-2.1-.6-3 .3l-.8 1.4a3 3 0 0 0-.4 1.6l.1.6c0 .2 0 .4.2.6.2.6.7 1.1 1.2 1.5.6.4 1.2.6 1.8.7.6 0 1.3 0 2-.3.6-.2 1.1-.6 1.6-1.1.8-1 .8-2 0-2.9" fill="#1b0a40" fill-rule="nonzero"/>
    <path d="M238.8 231.8l-.5-1.1a3.3 3.3 0 0 0-1.7-1.6l-1.5-.2a4 4 0 0 0-3.4 1.7l-.8 1.8a8.2 8.2 0 0 0 0 4.2l.8 1.7a4 4 0 0 0 3.4 1.8 3.4 3.4 0 0 0 2.6-1.1c.4-.4.7-.8.8-1.3l.4-1.5h2.5a7 7 0 0 1-.6 2.4 5.9 5.9 0 0 1-5.7 3.6 6.5 6.5 0 0 1-5.2-2.3 9 9 0 0 1 0-10.8 6.6 6.6 0 0 1 5.2-2.3c.9 0 1.6.1 2.4.4a6 6 0 0 1 1.9 1 5.2 5.2 0 0 1 2 3.6h-2.6zm6.2-.6h2.2v2l.5-.8a3.9 3.9 0 0 1 1.6-1.3l1-.2a5.2 5.2 0 0 1 1 0v2.3a11 11 0 0 0-1 0c-.4 0-.8 0-1.2.2-.3.1-.6.4-.9.7l-.6 1.1a5 5 0 0 0-.2 1.6v5H245v-10.6zm15.8 4.4c0-.4 0-.7-.2-1l-.5-1-.9-.6-1-.2c-.4 0-.8 0-1.2.2-.3.1-.6.3-.8.6a3.1 3.1 0 0 0-.8 2h5.4zm-5.4 1.5l.1 1.2c.2.4.3.7.6 1 .2.3.5.5.9.7.3.2.7.3 1.2.3.7 0 1.3-.2 1.7-.5.4-.3.7-.7 1-1.3h2.1a4.4 4.4 0 0 1-3.1 3.4l-1.7.2c-.8 0-1.5-.1-2.2-.4a4.5 4.5 0 0 1-2.6-3 7.2 7.2 0 0 1 0-4.3 5 5 0 0 1 8.7-1.6l1 2c.1.8.2 1.5 0 2.3h-7.7zm17.8-.6c-.4.2-.8.4-1.4.4a17.5 17.5 0 0 0-2.2.4l-.7.3-.4.5-.1.8c0 .3 0 .5.2.7l.5.4.7.2h1.6l.8-.4c.3-.1.5-.4.7-.6.2-.3.3-.6.3-1v-1.7zm2.3 3l.1.6c0 .1.2.2.5.2h.5v1.5a7.4 7.4 0 0 1-1.4.3c-.5 0-1 0-1.2-.3-.4-.2-.6-.5-.7-1-.4.5-1 .8-1.7 1-.6.2-1.3.3-2 .3-.4 0-.9 0-1.3-.2l-1.2-.6a2.8 2.8 0 0 1-1-2.3c0-.6 0-1.2.3-1.6.2-.4.5-.7 1-1l1.3-.5 1.4-.2 1.2-.2 1-.1c.3-.1.6-.2.7-.4.2-.2.3-.4.3-.8 0-.3 0-.5-.2-.7l-.5-.5-.8-.2h-.7a3 3 0 0 0-1.6.4c-.4.3-.7.7-.7 1.3h-2.4c0-.7.2-1.3.5-1.7.3-.5.7-.9 1.1-1.1l1.5-.6a9 9 0 0 1 3.3 0l1.4.5 1 1c.2.4.3.8.3 1.4v5.5zm3.1-8.3h1.8V228h2.3v3.2h2.1v1.8h-2v6.7l.4.3h.6a11.5 11.5 0 0 0 1 0v1.8a85.6 85.6 0 0 0-1.5.1l-1.5-.1a2 2 0 0 1-.9-.6l-.4-.8-.1-1.2V233h-1.8v-1.8zm9.6 0h2.4v10.6h-2.4v-10.6zm0-4h2.4v2.2h-2.4v-2.2zm5.5 4h2.5l2.7 8.2 2.7-8.2h2.4l-3.8 10.6h-2.6l-4-10.6zm20.6 4.4c0-.4 0-.7-.2-1l-.5-1-.9-.6-1-.2c-.4 0-.8 0-1.2.2-.3.1-.6.3-.8.6a3.1 3.1 0 0 0-.8 2h5.4zM309 237l.1 1.2c.2.4.3.7.6 1 .2.3.5.5.9.7.3.2.7.3 1.2.3.7 0 1.3-.2 1.7-.5.4-.3.7-.7 1-1.3h2.1a4.4 4.4 0 0 1-3.1 3.4l-1.7.2c-.8 0-1.5-.1-2.2-.4a4.5 4.5 0 0 1-2.6-3 7.2 7.2 0 0 1 0-4.3 5 5 0 0 1 7-3 5 5 0 0 1 1.7 1.4l1 2c.1.8.2 1.5 0 2.3H309zm23.4-8.4a1.5 1.5 0 0 0-1.5 1.6l.1.7.3.6.5.6.4.5a13.3 13.3 0 0 0 1.2-1c.2-.1.3-.3.4-.6l.1-.8a2 2 0 0 0-.4-1.2c-.3-.3-.6-.4-1-.4m-1 6.5l-.7.4-.8.5-.5.7a2 2 0 0 0-.3 1.1c0 .8.2 1.4.7 1.8.4.5 1 .7 1.7.7a3 3 0 0 0 1.8-.6l.6-.6.4-.5-3-3.5zm4.1 5c-.5.8-1.1 1.2-1.8 1.6-.7.3-1.4.4-2.3.4-.7 0-1.3 0-1.9-.3l-1.4-.8c-.4-.4-.8-.9-1-1.4-.2-.5-.3-1.2-.3-1.8 0-.6 0-1 .3-1.5l.7-1.1 1.1-1 1.3-.7a33.7 33.7 0 0 1-1-1.5l-.4-.8-.1-.9c0-.5 0-1 .2-1.4a3.3 3.3 0 0 1 2-1.8 4.4 4.4 0 0 1 2.8 0 3.3 3.3 0 0 1 2.2 3.2c0 .5 0 .9-.2 1.2a4 4 0 0 1-1.4 1.9l-1 .6 2.3 2.8a10.9 10.9 0 0 0 .4-2h2a6.8 6.8 0 0 1-1.1 3.6l2.8 3.4H337l-1.3-1.6zm14.2-8.9h2.2v1.6c.4-.6.8-1 1.4-1.4.6-.3 1.2-.5 2-.5a4 4 0 0 1 2.7 1c.6.5 1 1.4 1 2.6v7.3h-2.4v-6.6a3 3 0 0 0-.5-1.9c-.3-.3-.8-.5-1.5-.5-.4 0-.8 0-1.1.2-.3.1-.6.3-.8.6a2 2 0 0 0-.5.9l-.2 1v6.3h-2.3v-10.6zm19.9 5.3c-.3.2-.8.4-1.3.4a17.4 17.4 0 0 0-2.3.4l-.6.3-.4.5-.1.8c0 .3 0 .5.2.7l.5.4.7.2h1.6l.8-.4c.3-.1.5-.4.7-.6.2-.3.2-.6.2-1v-1.7zm2.4 3v.6l.5.2h.6v1.5a7.3 7.3 0 0 1-1.5.3c-.4 0-.8 0-1.2-.3-.3-.2-.5-.5-.6-1-.4.5-1 .8-1.7 1a7 7 0 0 1-2 .3c-.4 0-.9 0-1.3-.2-.5-.1-.9-.3-1.2-.6a2.8 2.8 0 0 1-1-2.3c0-.6 0-1.2.3-1.6.2-.4.5-.7 1-1l1.2-.5 1.5-.2 1.2-.2 1-.1c.3-.1.6-.2.7-.4.2-.2.3-.4.3-.8 0-.3 0-.5-.2-.7l-.6-.5-.7-.2h-.7a3 3 0 0 0-1.6.4c-.5.3-.7.7-.8 1.3H363c0-.7.2-1.3.5-1.7.3-.5.7-.9 1.1-1.1a4 4 0 0 1 1.5-.6 9 9 0 0 1 3.3 0l1.3.5c.4.3.8.6 1 1 .3.4.4.8.4 1.4v5.5zm3.1-8.3h1.7V228h2.4v3.2h2.1v1.8h-2.1v6.3c0 .1 0 .3.2.4l.3.3h.6a11.6 11.6 0 0 0 1 0v1.8a78.3 78.3 0 0 0-1.5.1l-1.5-.1a2 2 0 0 1-.9-.6l-.4-.8-.2-1.2V233h-1.7v-1.8zm18.8 10.6h-2.2v-1.5c-.4.6-.8 1-1.4 1.3-.5.4-1.1.5-1.7.5-1.4 0-2.4-.3-3-1-.7-.7-1-1.8-1-3.2v-6.7h2.4v6.5c0 1 .2 1.6.5 2 .4.4.9.6 1.5.6.5 0 1-.1 1.2-.3a2.2 2.2 0 0 0 1.3-1.5l.1-1.1v-6.2h2.4v10.6zm4.2-10.6h2.2v2l.4-.8a3.8 3.8 0 0 1 1.7-1.3l1-.2h.9v2.3a11 11 0 0 0-1 0c-.4 0-.8 0-1.1.2-.4.1-.7.4-1 .7l-.6 1.1-.2 1.6v5h-2.3v-10.6zm15.4 5.3c-.4.2-.8.4-1.3.4a17.4 17.4 0 0 0-2.3.4l-.6.3-.4.5-.2.8c0 .3 0 .5.2.7l.6.4.7.2h1.5l.9-.4.6-.6c.2-.3.3-.6.3-1v-1.7zm2.3 3l.1.6.5.2h.5v1.5a7.6 7.6 0 0 1-1.2.3h-.3c-.5 0-.9 0-1.2-.3-.3-.2-.5-.5-.6-1-.5.5-1 .8-1.7 1l-2 .3c-.5 0-1 0-1.4-.2-.4-.1-.8-.3-1.1-.6-.4-.2-.6-.5-.8-1a3 3 0 0 1-.3-1.3c0-.6 0-1.2.3-1.6l1-1 1.3-.5 1.4-.2 1.3-.2 1-.1.7-.4.2-.8c0-.3 0-.5-.2-.7l-.5-.5-.7-.2h-.8a3 3 0 0 0-1.6.4c-.4.3-.7.7-.7 1.3h-2.3c0-.7.2-1.3.4-1.7.3-.5.7-.9 1.1-1.1.5-.3 1-.5 1.6-.6a9 9 0 0 1 3.2 0l1.4.5 1 1c.2.4.3.8.3 1.4v5.5z" fill="#cc8776" fill-rule="nonzero"/>
    <path fill="#cc8776" d="M420.2 227.2h2.3v14.7h-2.3z"/>
    <path d="M442.3 236.5c0-.4 0-1-.2-1.4l-.6-1.2c-.2-.3-.5-.6-.9-.8-.4-.2-.8-.3-1.3-.3-1 0-1.7.3-2.2 1-.5.7-.7 1.6-.7 2.7 0 .6 0 1 .2 1.5 0 .5.3.9.5 1.2l1 .8c.3.2.8.3 1.2.3a2.6 2.6 0 0 0 2.3-1.2l.5-1.2.2-1.4m-8.2-9.3h2.3v5.4l.7-.7a3.7 3.7 0 0 1 1.6-.9 5 5 0 0 1 3.1.3 5.3 5.3 0 0 1 2.6 3.1 7.6 7.6 0 0 1-.9 6c-.4.5-.9 1-1.4 1.3-.6.3-1.3.4-2 .4H439l-1-.3c-.4-.2-.7-.3-1-.6-.2-.2-.5-.5-.6-.8v1.4H434v-14.6zm21.4 8.4c0-.4 0-.7-.2-1a2.6 2.6 0 0 0-1.4-1.5 2 2 0 0 0-1-.3c-.5 0-.8 0-1.2.2-.3.1-.6.3-.8.6a3.2 3.2 0 0 0-.8 2h5.4zm-5.4 1.5l.1 1.2c.1.4.3.7.6 1l.8.7a3.1 3.1 0 0 0 3-.2c.4-.3.7-.7.9-1.3h2.2a4.4 4.4 0 0 1-3.1 3.4l-1.7.2a5 5 0 0 1-2.2-.4 4.5 4.5 0 0 1-2.6-3 7.2 7.2 0 0 1 0-4.3 5 5 0 0 1 7-3 5 5 0 0 1 1.7 1.4l1 2c.1.8.2 1.5 0 2.3h-7.7zm17.7-.6c-.3.2-.8.4-1.3.4a17.4 17.4 0 0 0-2.3.4l-.6.3-.4.5-.1.8c0 .3 0 .5.2.7l.5.4.7.2h1.6l.8-.4c.3-.1.5-.4.7-.6.2-.3.2-.6.2-1v-1.7zm2.4 3l.1.6.4.2h.6v1.5a7.6 7.6 0 0 1-1.1.3h-.4c-.4 0-.8 0-1.2-.3-.3-.2-.5-.5-.6-1-.4.5-1 .8-1.7 1a7 7 0 0 1-2 .3c-.4 0-.9 0-1.3-.2-.5-.1-.8-.3-1.2-.6a2 2 0 0 1-.8-1 3 3 0 0 1-.3-1.3c0-.6.1-1.2.4-1.6.2-.4.5-.7 1-1l1.2-.5 1.5-.2 1.2-.2 1-.1c.3-.1.6-.2.7-.4.2-.2.3-.4.3-.8 0-.3 0-.5-.2-.7l-.6-.5-.7-.2h-.7a3 3 0 0 0-1.6.4c-.5.3-.7.7-.8 1.3h-2.3c0-.7.2-1.3.5-1.7.3-.5.7-.9 1.1-1.1a4 4 0 0 1 1.5-.6 9 9 0 0 1 3.3 0l1.3.5c.4.3.8.6 1 1 .3.4.4.8.4 1.4v5.5zm13.5 2.3h-2.3v-1.5a4 4 0 0 1-1.3 1.3 3 3 0 0 1-1.8.5c-1.4 0-2.4-.3-3-1-.6-.7-1-1.8-1-3.2v-6.7h2.4v6.5c0 1 .2 1.6.5 2 .4.4.9.6 1.5.6.5 0 1-.1 1.3-.3.3-.1.6-.3.8-.6.2-.2.3-.5.4-.9l.1-1.1v-6.2h2.4v10.6zm3-10.6h1.8V228h2.3v3.2h2.1v1.8h-2v6.3l.1.4.3.3h.7a11.6 11.6 0 0 0 1 0v1.8a75 75 0 0 0-1.6.1l-1.5-.1a2 2 0 0 1-.9-.6l-.4-.8-.1-1.2V233h-1.8v-1.8zm8.4 0h2.6l2.7 8 2.8-8h2.4l-4.1 11.2a70.4 70.4 0 0 1-1.3 2.5 3 3 0 0 1-2.5 1.1h-1.6v-2a13 13 0 0 1 1.1 0h.7c.2 0 .3-.2.4-.3l.3-.5.3-.6.2-.8-4-10.6z" fill="#cc8776" fill-rule="nonzero"/>
    <path d="M541.3 155.8a1 1 0 0 1-.7-.3L366.9 7.3 193.2 155.5a1.2 1.2 0 1 1-1.6-1.8L367 4.2l175 149.5a1.2 1.2 0 0 1-.8 2" fill="#1b0a40" fill-rule="nonzero"/>
    <path d="M532.6 157.7a3 3 0 0 1-1.5-.5L366.9 17 202.6 157a2.4 2.4 0 0 1-3-3.5L366.9 10.8l167.3 142.8a2.4 2.4 0 0 1-1.6 4.1m-165.7 232L191.6 240.2a1.2 1.2 0 0 1 1.6-1.8l173.7 148.2 173.7-148.2c.5-.4 1.2-.4 1.6.1.5.5.4 1.3 0 1.7L366.8 389.7z" fill="#1b0a40" fill-rule="nonzero"/>
    <path d="M366.9 383L199.6 240.3a2.4 2.4 0 1 1 3-3.6L367 376.8l164.2-140a2.4 2.4 0 0 1 3 3.5L367 383z" fill="#1b0a40" fill-rule="nonzero"/>
    <path d="M353 281.2c0-.6.2-1.2.5-1.6.2-.5.5-1 .9-1.4.8-1 1.7-1 2.9-.3a24.7 24.7 0 0 1 2.7 2.4c.8.9.8 1.8 0 2.9a4.4 4.4 0 0 1-3.6 1.4 4 4 0 0 1-1.8-.7c-.6-.4-1-1-1.2-1.5l-.2-.6-.1-.6m10 0c0-.6.1-1.2.4-1.6.2-.5.5-1 .9-1.4.8-1 1.8-1 2.9-.3a24.7 24.7 0 0 1 2.7 2.4c.8.9.8 1.8 0 2.9a4.4 4.4 0 0 1-3.6 1.4 4 4 0 0 1-1.8-.7c-.5-.4-1-1-1.2-1.5l-.2-.6v-.6m10 0c0-.6 0-1.2.3-1.6l1-1.4c.8-1 1.7-1 2.8-.3a25.4 25.4 0 0 1 2.7 2.4c.8.9.8 1.8 0 2.9-.4.5-1 .9-1.6 1.1a7 7 0 0 1-2 .3c-.6-.1-1.2-.3-1.7-.7-.6-.4-1-1-1.3-1.5l-.1-.6-.1-.6" fill="#1b0a40" fill-rule="nonzero"/>
    <path d="M46.4 206.1a2.2 2.2 0 1 1 0-4.4 2.2 2.2 0 0 1 0 4.4m-3.2 6a2.2 2.2 0 1 1 0-4.5 2.2 2.2 0 0 1 0 4.4m-3.2 6a2.2 2.2 0 1 1 0-4.4 2.2 2.2 0 0 1 0 4.4m-3.1 6a2.2 2.2 0 1 1 0-4.5 2.2 2.2 0 0 1 0 4.4m-12-24.7l-14.4 21.9 8.5 1.6 17-18.4-9.6 20.7a131.1 131.1 0 0 0 37 1L81 199.1H25z" fill="#00687a" fill-rule="nonzero"/>
    <path d="M132 205.6a2.2 2.2 0 1 1 0-4.4 2.2 2.2 0 0 1 0 4.4m-3.3 6a2.2 2.2 0 1 1 0-4.5 2.2 2.2 0 0 1 0 4.5m-3.1 5.9a2.2 2.2 0 1 1 0-4.4 2.2 2.2 0 0 1 0 4.4m-3.2 6a2.2 2.2 0 1 1 0-4.5 2.2 2.2 0 0 1 0 4.4m-36.7-24.2l-12.8 22.3c5.8.3 12-.1 17.7-2.1l15.5-10.6-8.1 12.8 8.8 1.7 17-18.4-9.6 20.6c.1-.2 8.5 1.2 9 1.2l1.5.2 15.9-27.7h-55z" fill="#ddd2bd" fill-rule="nonzero"/>
    <path d="M107.1 193.7a2.2 2.2 0 1 1 0-4.4 2.2 2.2 0 0 1 0 4.4m-5.4-8.1a2.2 2.2 0 1 1 4.5 0 2.2 2.2 0 0 1-4.5 0m-3.1-6a2.2 2.2 0 1 1 4.4 0 2.2 2.2 0 0 1-4.4 0m-3.2-5.9a2.2 2.2 0 1 1 4.4 0 2.2 2.2 0 0 1-4.4 0m28.8-4.2l-6.3-.7c-7.2-.4-14.5-.3-21.8.4-.5 0-8.9 1.5-9 1.3l9.7 20.6-17-18.4-8.6 1.6 13.3 20.2h56.1l-16.4-25z" fill="#cc8776" fill-rule="nonzero"/>
    <path d="M591.2 196.9a5.7 5.7 0 1 1-11.4 0 5.7 5.7 0 0 1 11.4 0" fill="#ddd2bd" fill-rule="nonzero"/>
    <path d="M611.3 194.5h-2.8a8.7 8.7 0 0 0-16.8 0h-1a5.6 5.6 0 0 1 0 4.7h1a8.7 8.7 0 0 0 16.8 0h2.8l.5-2.3-.5-2.4m-31.5 2.4c0-.9.2-1.7.5-2.4h-1a5.7 5.7 0 0 0-10.3 0h-1.1a5.7 5.7 0 0 0-10.3 0h-30.7a2.4 2.4 0 1 0 0 4.7h30.7a5.7 5.7 0 0 0 10.3 0h1a5.7 5.7 0 0 0 10.4 0h1a6 6 0 0 1-.5-2.3" fill="#1b0a40" fill-rule="nonzero"/>
    <path d="M159 196.9a5.7 5.7 0 1 1 11.5 0 5.7 5.7 0 0 1-11.4 0" fill="#ddd2bd" fill-rule="nonzero"/>
    <path d="M206 194.5h-13.4a5.7 5.7 0 0 0-10.3 0h-1a5.7 5.7 0 0 0-10.3 0h-1a5.6 5.6 0 0 1 0 4.7h1a5.7 5.7 0 0 0 10.3 0h1a5.7 5.7 0 0 0 10.3 0H206a2.4 2.4 0 0 0 0-4.7m-134.8-.3a2.2 2.2 0 1 1 0-4.4 2.2 2.2 0 0 1 0 4.4m-5.4-8.1a2.2 2.2 0 1 1 4.4 0 2.2 2.2 0 0 1-4.4 0m-3.2-6a2.2 2.2 0 1 1 4.4 0 2.2 2.2 0 0 1-4.4 0m-3.1-5.9a2.2 2.2 0 1 1 4.4 0 2.2 2.2 0 0 1-4.4 0m99.6 22.7c0-.9.2-1.7.5-2.4h-1.1a8.7 8.7 0 0 0-16.7 0h-63l-14.9-26-1.4.2c-.5 0-8.9 1.4-9 1.2l9.6 20.7-17-18.4-8.9 1.7 8.1 12.8L30 176a45 45 0 0 0-17.8-2.1L24 194.5h-3.4a8.7 8.7 0 0 0-17.1 2.4 8.7 8.7 0 0 0 17.1 2.3h121.3a8.7 8.7 0 0 0 16.7 0h1.1a6 6 0 0 1-.5-2.3" fill="#1b0a40" fill-rule="nonzero"/>
  </g>
</svg>
